<?xml version="1.0" standalone="no"?><!DOCTYPE svg PUBLIC "-//W3C//DTD SVG 1.1//EN" "http://www.w3.org/Graphics/SVG/1.1/DTD/svg11.dtd"><svg t="1702292495778" class="icon" viewBox="0 0 1024 1024" version="1.1" xmlns="http://www.w3.org/2000/svg" p-id="4353" xmlns:xlink="http://www.w3.org/1999/xlink" width="128" height="128"><path d="M523.377778 776.533333c22.755556-19.911111 45.511111-39.822222 68.266666-56.888889l5.688889-5.688888c34.133333-31.288889 59.733333-54.044444 76.8-68.266667C713.955556 603.022222 739.555556 546.133333 739.555556 483.555556c0-125.155556-102.4-227.555556-227.555556-227.555556S284.444444 358.4 284.444444 483.555556c0 62.577778 25.6 119.466667 65.422223 162.133333 17.066667 14.222222 42.666667 36.977778 76.8 68.266667l5.688889 5.688888c22.755556 19.911111 45.511111 39.822222 68.266666 56.888889 2.844444 2.844444 8.533333 5.688889 11.377778 11.377778l11.377778-11.377778z m190.577778-91.022222c-17.066667 17.066667-42.666667 39.822222-79.644445 71.111111l-5.688889 5.688889-68.266666 59.733333c-8.533333 5.688889-14.222222 14.222222-22.755556 19.911112l-8.533333 8.533333-17.066667 11.377778-17.066667-14.222223c-2.844444 0-5.688889-2.844444-8.533333-8.533333-5.688889-5.688889-14.222222-11.377778-22.755556-19.911111l-68.266666-59.733333-5.688889-5.688889c-34.133333-31.288889-62.577778-56.888889-79.644445-71.111111C258.844444 631.466667 227.555556 560.355556 227.555556 483.555556 227.555556 327.111111 355.555556 199.111111 512 199.111111S796.444444 327.111111 796.444444 483.555556c0 76.8-31.288889 147.911111-82.488888 201.955555z" fill="#3C3D44" p-id="4354"></path><path d="M512 483.555556m-85.333333 0a85.333333 85.333333 0 1 0 170.666666 0 85.333333 85.333333 0 1 0-170.666666 0Z" fill="#FF4A60" p-id="4355"></path></svg>