<?xml version="1.0" standalone="no"?><!DOCTYPE svg PUBLIC "-//W3C//DTD SVG 1.1//EN" "http://www.w3.org/Graphics/SVG/1.1/DTD/svg11.dtd"><svg t="1699348708090" class="icon" viewBox="0 0 1024 1024" version="1.1" xmlns="http://www.w3.org/2000/svg" p-id="1556" xmlns:xlink="http://www.w3.org/1999/xlink" width="128" height="128"><path d="M511.31392 203.28448c203.07968 0 367.7184 164.62848 367.7184 367.70816v268.57472c0 20.3776-16.51712 36.88448-36.88448 36.88448H180.49024c-20.3776 0-36.88448-16.51712-36.88448-36.88448V570.99264c0-203.07968 164.62848-367.70816 367.70816-367.70816zM479.03744 0.4096h64.55296a9.216 9.216 0 0 1 9.216 9.216v110.66368c0 5.08928-4.12672 9.22624-9.216 9.22624h-64.55296c-5.08928 0-9.216-4.13696-9.216-9.22624V9.6256a9.216 9.216 0 0 1 9.216-9.216zM125.46048 142.9504a9.217024 9.217024 0 0 1 6.51264-2.70336c2.44736 0 4.79232 0.9728 6.52288 2.70336l78.24384 78.24384a9.223168 9.223168 0 0 1 2.70336 6.52288c0 2.44736-0.9728 4.79232-2.70336 6.51264l-45.64992 45.64992a9.217024 9.217024 0 0 1-6.51264 2.70336c-2.44736 0-4.79232-0.9728-6.52288-2.70336l-78.24384-78.24384a9.223168 9.223168 0 0 1 0-13.04576l45.64992-45.63968z m771.84 0l45.64992 45.64992a9.223168 9.223168 0 0 1 0 13.04576l-78.24384 78.24384a9.223168 9.223168 0 0 1-6.52288 2.70336c-2.44736 0-4.79232-0.9728-6.51264-2.70336l-45.64992-45.64992a9.217024 9.217024 0 0 1-2.70336-6.51264c0-2.44736 0.9728-4.79232 2.70336-6.52288l78.24384-78.24384a9.223168 9.223168 0 0 1 6.52288-2.70336 9.1648 9.1648 0 0 1 6.51264 2.69312zM142.44864 950.23104h737.73056c20.3776 0 36.88448 16.51712 36.88448 36.88448V1014.784a9.216 9.216 0 0 1-9.216 9.216H114.7904a9.216 9.216 0 0 1-9.216-9.216v-27.65824c-0.01024-20.38784 16.50688-36.89472 36.87424-36.89472z m170.60864-365.40416v291.62496h73.76896V584.82688h-73.76896z m0 0" fill="#2C2C2C" p-id="1557"></path></svg>